<svg width="170" height="36" viewBox="0 0 170 36" fill="none" xmlns="http://www.w3.org/2000/svg">
<g clip-path="url(#clip0_1_7)">
<path fill-rule="evenodd" clip-rule="evenodd" d="M36.35 15.27C37.21 16.75 37.21 18.57 36.35 20.05L29.5 31.92C28.65 33.41 27.06 34.32 25.35 34.32H11.64C10.8011 34.3191 9.97711 34.0978 9.25056 33.6784C8.52401 33.2589 7.92036 32.656 7.50002 31.93L0.640015 20.04C0.221459 19.313 0.00115967 18.4889 0.00115967 17.65C0.00115967 16.8111 0.221459 15.987 0.640015 15.26L7.50002 3.4C8.35002 1.91 9.93001 1 11.65 1H25.35C26.1906 0.99919 27.0167 1.21962 27.7451 1.63914C28.4736 2.05866 29.0788 2.66251 29.5 3.39L36.35 15.27ZM17.82 6.87C17.8772 6.71204 17.982 6.57575 18.12 6.48V6.49C18.2221 6.41796 18.3395 6.37052 18.463 6.35139C18.5865 6.33226 18.7127 6.34196 18.8318 6.37973C18.9509 6.41749 19.0597 6.48231 19.1496 6.56909C19.2395 6.65588 19.3081 6.76229 19.35 6.88L20.12 8.99C20.7268 10.6485 21.688 12.1546 22.9367 13.4033C24.1854 14.652 25.6916 15.6133 27.35 16.22L29.47 17C29.6301 17.0526 29.7694 17.1544 29.8682 17.2909C29.967 17.4273 30.0202 17.5915 30.0202 17.76C30.0202 17.9285 29.967 18.0927 29.8682 18.2291C29.7694 18.3656 29.6301 18.4674 29.47 18.52L27.35 19.3C25.6916 19.9067 24.1854 20.868 22.9367 22.1167C21.688 23.3654 20.7268 24.8715 20.12 26.53L19.35 28.64C19.2947 28.7988 19.1914 28.9365 19.0543 29.034C18.9172 29.1314 18.7532 29.1838 18.585 29.1838C18.4168 29.1838 18.2528 29.1314 18.1157 29.034C17.9786 28.9365 17.8753 28.7988 17.82 28.64L17.05 26.53C16.4433 24.8715 15.482 23.3654 14.2333 22.1167C12.9846 20.868 11.4785 19.9067 9.82001 19.3L7.70002 18.52C7.54458 18.4627 7.41046 18.3591 7.31572 18.2232C7.22099 18.0873 7.17019 17.9257 7.17019 17.76C7.17019 17.5943 7.22099 17.4327 7.31572 17.2968C7.41046 17.1609 7.54458 17.0573 7.70002 17L9.82001 16.21C11.4785 15.6033 12.9846 14.642 14.2333 13.3933C15.482 12.1446 16.4433 10.6385 17.05 8.98L17.82 6.87Z" fill="white"/>
<path d="M151.71 13.34C150.77 13.34 150.08 13.12 149.64 12.68C149.435 12.4758 149.272 12.2326 149.162 11.9647C149.052 11.6968 148.997 11.4096 149 11.12C149 10.19 149.38 9.47 150.13 8.94C150.89 8.41 151.9 8.14 153.15 8.14H155.34L155.36 8C155.39 7.84 155.41 7.68 155.41 7.5C155.41 7.02 155.26 6.66 154.97 6.41C154.67 6.16 154.29 6.04 153.82 6.04C153.32 6.04 152.87 6.16 152.46 6.41C152.04 6.65 151.75 7.01 151.58 7.47H149.81C149.98 6.87 150.27 6.35 150.69 5.92C151.1 5.48 151.6 5.15 152.19 4.92C152.77 4.69 153.39 4.57 154.06 4.57C155.08 4.57 155.86 4.81 156.4 5.28C156.94 5.74 157.21 6.38 157.21 7.22C157.213 7.48127 157.193 7.74232 157.15 8L156.25 13.14H154.65L154.78 11.74C154.46 12.2 154.04 12.58 153.53 12.89C153.04 13.19 152.43 13.34 151.71 13.34ZM152.32 11.89C152.79 11.89 153.22 11.78 153.59 11.55C153.97 11.32 154.29 11.01 154.55 10.63C154.81 10.24 154.99 9.83 155.1 9.36H153.11C152.44 9.36 151.91 9.5 151.51 9.76C151.11 10.04 150.92 10.4 150.92 10.86C150.92 11.2 151.05 11.46 151.29 11.64C151.54 11.81 151.89 11.89 152.32 11.89ZM161.31 3.22C160.97 3.22 160.69 3.12 160.46 2.9C160.356 2.79692 160.274 2.67372 160.219 2.5379C160.164 2.40209 160.137 2.2565 160.14 2.11C160.14 1.79 160.24 1.53 160.46 1.31C160.69 1.11 160.96 1 161.3 1C161.64 1 161.92 1.1 162.13 1.32C162.36 1.53 162.47 1.79 162.47 2.11C162.47 2.42 162.36 2.69 162.13 2.91C161.92 3.11 161.64 3.22 161.31 3.22ZM158.46 13.14L159.93 4.77H161.72L160.26 13.14H158.47H158.46Z" fill="#FFD057"/>
<path d="M59.3125 27.2969C55.5625 27.2969 52.9844 25.4844 52.6719 22.7031H55.4531C55.9062 24.1094 57.25 25.0312 59.4062 25.0312C61.6719 25.0312 63.2812 23.9531 63.2812 22.4219V22.3906C63.2812 21.25 62.4219 20.4531 60.3438 19.9531L57.7344 19.3281C54.5781 18.5781 53.1562 17.2031 53.1562 14.7812V14.7656C53.1562 11.9688 55.8438 9.85938 59.4219 9.85938C62.9531 9.85938 65.4062 11.625 65.7812 14.375H63.1094C62.75 13.0469 61.4375 12.125 59.4062 12.125C57.4062 12.125 55.9375 13.1562 55.9375 14.6406V14.6719C55.9375 15.8125 56.7812 16.5312 58.7656 17.0156L61.3594 17.6406C64.5312 18.4062 66.0625 19.7812 66.0625 22.1875V22.2188C66.0625 25.2188 63.1406 27.2969 59.3125 27.2969ZM76.1094 27.125C72.6406 27.125 71.1875 25.8438 71.1875 22.625V12.4062H68.5312V10.1562H71.1875V5.79688H74V10.1562H77.6875V12.4062H74V21.9375C74 23.9219 74.6875 24.7188 76.4375 24.7188C76.9219 24.7188 77.1875 24.7031 77.6875 24.6562V26.9688C77.1562 27.0625 76.6406 27.125 76.1094 27.125ZM88.375 27.2969C83.5625 27.2969 80.6562 23.9219 80.6562 18.6406V18.625C80.6562 13.4219 83.625 9.85938 88.2031 9.85938C92.7812 9.85938 95.5625 13.2656 95.5625 18.2969V19.3594H83.4375C83.5156 22.8438 85.4375 24.875 88.4375 24.875C90.7188 24.875 92.125 23.7969 92.5781 22.7812L92.6406 22.6406H95.3594L95.3281 22.7656C94.75 25.0469 92.3438 27.2969 88.375 27.2969ZM88.1875 12.2812C85.6875 12.2812 83.7812 13.9844 83.4844 17.1875H92.7969C92.5156 13.8594 90.6719 12.2812 88.1875 12.2812ZM99.9375 27V3.46875H102.656V27H99.9375ZM108.031 27V3.46875H110.75V27H108.031ZM120.594 27.2969C117.391 27.2969 114.969 25.3594 114.969 22.2969V22.2656C114.969 19.2656 117.188 17.5312 121.109 17.2969L125.938 17V15.4688C125.938 13.3906 124.672 12.2656 122.156 12.2656C120.141 12.2656 118.812 13.0156 118.375 14.3281L118.359 14.375H115.641L115.656 14.2812C116.094 11.6406 118.656 9.85938 122.25 9.85938C126.359 9.85938 128.656 11.9688 128.656 15.4688V27H125.938V24.5156H125.688C124.625 26.3125 122.859 27.2969 120.594 27.2969ZM117.75 22.2344C117.75 23.9375 119.203 24.9375 121.156 24.9375C123.922 24.9375 125.938 23.125 125.938 20.7188V19.1875L121.438 19.4688C118.875 19.625 117.75 20.5312 117.75 22.2031V22.2344ZM133.625 27V10.1562H136.344V12.6562H136.594C137.234 10.8906 138.812 9.85938 141.094 9.85938C141.609 9.85938 142.188 9.92188 142.453 9.96875V12.6094C141.891 12.5156 141.375 12.4531 140.781 12.4531C138.188 12.4531 136.344 14.0938 136.344 16.5625V27H133.625Z" fill="white"/>
</g>
<defs>
<clipPath id="clip0_1_7">
<rect width="170" height="36" fill="white"/>
</clipPath>
</defs>
</svg>
